# xmcd CD database file
#
# Track frame offsets:
#	150
#	27742
#	54126
#	71309
#	88746
#	107907
#	136167
#	157837
#	172172
#	187857
#	214016
#	238021
#
# Disc length: 3516 seconds
#
# Revision: 1
# Processed by: cddbd v1.5PL3 Copyright (c) Steve Scherf et al.
# Submitted via: CDex 1.51
#
DISCID=9c0dba0c
DTITLE=Sojiro - Tokusen II [CD1)
DYEAR=1994
DGENRE=New Age
TTITLE0=Forest
TTITLE1=Shimmering Horizon
TTITLE2=Stream
TTITLE3=Motherland
TTITLE4=Falling Star
TTITLE5=Samarkand
TTITLE6=Lago Titicaca
TTITLE7=Dream of Bhutan
TTITLE8=Harmony
TTITLE9=Moon Light
TTITLE10=Fountain
TTITLE11=The Sunset
EXTD=YEAR: 1994
EXTT0=
EXTT1=
EXTT2=
EXTT3=
EXTT4=
EXTT5=
EXTT6=
EXTT7=
EXTT8=
EXTT9=
EXTT10=
EXTT11=
PLAYORDER=
